<svg xmlns="http://www.w3.org/2000/svg" xmlns:xlink="http://www.w3.org/1999/xlink" width="500" zoomAndPan="magnify" viewBox="0 0 375 374.999991" height="500" preserveAspectRatio="xMidYMid meet" version="1.0"><defs><g/><clipPath id="146859fb19"><path d="M 0.121094 16 L 34 16 L 34 60 L 0.121094 60 Z M 0.121094 16 " clip-rule="nonzero"/></clipPath><clipPath id="ff7e9b9a15"><rect x="0" width="51" y="0" height="87"/></clipPath><clipPath id="e6f0ff9b5f"><path d="M 0.441406 9 L 21 9 L 21 55 L 0.441406 55 Z M 0.441406 9 " clip-rule="nonzero"/></clipPath><clipPath id="08524329a5"><rect x="0" width="161" y="0" height="73"/></clipPath><clipPath id="4a47be627f"><rect x="0" width="188" y="0" height="76"/></clipPath></defs><g transform="matrix(1, 0, 0, 1, 63, 97)"><g clip-path="url(#ff7e9b9a15)"><g clip-path="url(#146859fb19)"><g fill="#cb102c" fill-opacity="1"><g transform="translate(14.618693, 50.352798)"><g><path d="M -14.234375 -22.578125 C -14.234375 -23.023438 -13.828125 -23.492188 -13.015625 -23.984375 C -12.203125 -24.472656 -11.179688 -24.953125 -9.953125 -25.421875 C -8.722656 -25.890625 -7.421875 -26.332031 -6.046875 -26.75 C -4.679688 -27.175781 -3.425781 -27.539062 -2.28125 -27.84375 C -1.132812 -28.15625 -0.273438 -28.394531 0.296875 -28.5625 C 1.015625 -28.757812 1.515625 -28.875 1.796875 -28.90625 C 2.085938 -28.945312 2.273438 -29.0625 2.359375 -29.25 C 2.441406 -29.4375 2.535156 -29.816406 2.640625 -30.390625 C 2.898438 -31.765625 3.207031 -32.710938 3.5625 -33.234375 C 3.925781 -33.765625 4.273438 -34.03125 4.609375 -34.03125 C 4.878906 -34.03125 5.109375 -33.882812 5.296875 -33.59375 C 5.484375 -33.3125 5.578125 -32.96875 5.578125 -32.5625 C 5.578125 -32.257812 5.554688 -32.132812 5.515625 -32.1875 C 5.484375 -32.238281 5.484375 -32.128906 5.515625 -31.859375 C 5.515625 -31.785156 5.523438 -31.695312 5.546875 -31.59375 C 5.566406 -31.5 5.578125 -31.363281 5.578125 -31.1875 C 5.578125 -30.75 5.488281 -30.53125 5.3125 -30.53125 C 5.144531 -30.53125 4.976562 -30.503906 4.8125 -30.453125 C 4.644531 -30.410156 4.5625 -30.117188 4.5625 -29.578125 C 4.96875 -29.578125 5.414062 -29.632812 5.90625 -29.75 C 6.394531 -29.863281 6.820312 -29.941406 7.1875 -29.984375 C 8.675781 -30.253906 10.160156 -30.5 11.640625 -30.71875 C 13.128906 -30.9375 14.648438 -31.046875 16.203125 -31.046875 C 17.015625 -31.046875 17.601562 -30.875 17.96875 -30.53125 C 18.34375 -30.195312 18.476562 -29.859375 18.375 -29.515625 C 18.28125 -29.179688 17.910156 -29.015625 17.265625 -29.015625 C 17.203125 -29.285156 17.160156 -29.410156 17.140625 -29.390625 C 17.117188 -29.378906 16.957031 -29.40625 16.65625 -29.46875 C 16.519531 -29.507812 16.25 -29.53125 15.84375 -29.53125 C 15.132812 -29.53125 14.195312 -29.453125 13.03125 -29.296875 C 11.875 -29.140625 10.671875 -28.957031 9.421875 -28.75 C 8.171875 -28.550781 7.054688 -28.359375 6.078125 -28.171875 C 5.097656 -27.992188 4.457031 -27.867188 4.15625 -27.796875 L 3.140625 -17.421875 C 3.109375 -17.179688 3.097656 -16.925781 3.109375 -16.65625 C 3.128906 -16.382812 3.140625 -16.113281 3.140625 -15.84375 C 3.140625 -15.507812 3.113281 -15.289062 3.0625 -15.1875 C 3.007812 -15.09375 2.984375 -14.859375 2.984375 -14.484375 C 2.984375 -13.742188 3 -12.890625 3.03125 -11.921875 C 3.070312 -10.960938 3.054688 -10.210938 2.984375 -9.671875 C 2.953125 -9.367188 2.925781 -8.769531 2.90625 -7.875 C 2.894531 -6.976562 2.878906 -5.9375 2.859375 -4.75 C 2.835938 -3.570312 2.828125 -2.382812 2.828125 -1.1875 C 2.828125 0.0078125 2.828125 1.097656 2.828125 2.078125 C 2.828125 3.054688 2.847656 3.765625 2.890625 4.203125 C 2.890625 4.578125 2.929688 5.140625 3.015625 5.890625 C 3.097656 6.648438 3.113281 7.332031 3.0625 7.9375 C 3.007812 8.550781 2.765625 8.859375 2.328125 8.859375 C 1.691406 8.859375 1.304688 8.503906 1.171875 7.796875 C 1.035156 7.085938 0.96875 6.429688 0.96875 5.828125 C 0.863281 4.609375 0.800781 3.1875 0.78125 1.5625 C 0.769531 -0.0507812 0.769531 -1.664062 0.78125 -3.28125 C 0.800781 -4.90625 0.8125 -6.328125 0.8125 -7.546875 L 0.96875 -9.921875 C 0.96875 -10.398438 0.96875 -11.128906 0.96875 -12.109375 C 0.96875 -13.085938 0.984375 -14.125 1.015625 -15.21875 C 1.046875 -16.3125 1.078125 -17.3125 1.109375 -18.21875 C 1.148438 -19.132812 1.203125 -19.78125 1.265625 -20.15625 C 1.335938 -20.488281 1.378906 -20.890625 1.390625 -21.359375 C 1.410156 -21.835938 1.4375 -22.242188 1.46875 -22.578125 L 1.921875 -27.296875 C 1.785156 -27.265625 1.488281 -27.195312 1.03125 -27.09375 C 0.582031 -26.988281 0.222656 -26.90625 -0.046875 -26.84375 C -1.703125 -26.4375 -3.28125 -26.003906 -4.78125 -25.546875 C -6.28125 -25.085938 -7.828125 -24.554688 -9.421875 -23.953125 C -9.722656 -23.816406 -10 -23.671875 -10.25 -23.515625 C -10.507812 -23.367188 -10.789062 -23.226562 -11.09375 -23.09375 C -11.5 -22.925781 -11.757812 -22.804688 -11.875 -22.734375 C -11.988281 -22.671875 -12.046875 -22.585938 -12.046875 -22.484375 C -12.046875 -22.378906 -12.132812 -22.160156 -12.3125 -21.828125 C -12.445312 -21.796875 -12.578125 -21.769531 -12.703125 -21.75 C -12.835938 -21.726562 -12.992188 -21.71875 -13.171875 -21.71875 C -13.441406 -21.71875 -13.6875 -21.773438 -13.90625 -21.890625 C -14.125 -22.015625 -14.234375 -22.242188 -14.234375 -22.578125 Z M -14.234375 -22.578125 "/></g></g></g></g><g fill="#cb102c" fill-opacity="1"><g transform="translate(20.493594, 50.352798)"><g><path d="M -0.296875 -4.203125 L 0 -9.921875 C 0.03125 -10.296875 0.0625 -10.742188 0.09375 -11.265625 C 0.132812 -11.785156 0.171875 -12.234375 0.203125 -12.609375 C 0.265625 -14.296875 0.472656 -15.96875 0.828125 -17.625 C 1.191406 -19.28125 1.570312 -20.914062 1.96875 -22.53125 C 2.207031 -23.207031 2.394531 -23.65625 2.53125 -23.875 C 2.664062 -24.09375 2.851562 -24.203125 3.09375 -24.203125 C 3.1875 -24.203125 3.300781 -24.191406 3.4375 -24.171875 C 3.570312 -24.160156 3.726562 -24.140625 3.90625 -24.109375 C 4.070312 -23.328125 4.035156 -22.40625 3.796875 -21.34375 C 3.554688 -20.28125 3.367188 -19.3125 3.234375 -18.4375 C 2.867188 -16.101562 2.566406 -13.535156 2.328125 -10.734375 C 2.085938 -7.929688 1.96875 -5.265625 1.96875 -2.734375 L 2.125 2.9375 L 2.53125 1.96875 C 3 0.625 3.394531 -0.507812 3.71875 -1.4375 C 4.039062 -2.363281 4.410156 -3.285156 4.828125 -4.203125 C 5.253906 -5.117188 5.820312 -6.234375 6.53125 -7.546875 C 6.90625 -8.222656 7.269531 -8.796875 7.625 -9.265625 C 7.976562 -9.734375 8.523438 -9.96875 9.265625 -9.96875 C 9.640625 -9.96875 9.898438 -9.695312 10.046875 -9.15625 C 10.203125 -8.625 10.296875 -8.035156 10.328125 -7.390625 C 10.359375 -6.753906 10.375 -6.28125 10.375 -5.96875 C 10.375 -5.03125 10.398438 -4.226562 10.453125 -3.5625 C 10.503906 -2.90625 10.703125 -2.257812 11.046875 -1.625 C 11.816406 -1.789062 12.472656 -2.285156 13.015625 -3.109375 C 13.554688 -3.941406 14.046875 -4.660156 14.484375 -5.265625 C 14.722656 -5.640625 14.941406 -6.007812 15.140625 -6.375 C 15.347656 -6.75 15.550781 -7.140625 15.75 -7.546875 C 16.050781 -8.085938 16.296875 -8.457031 16.484375 -8.65625 C 16.671875 -8.863281 16.863281 -8.96875 17.0625 -8.96875 C 17.164062 -8.96875 17.351562 -8.929688 17.625 -8.859375 C 17.789062 -8.253906 17.753906 -7.765625 17.515625 -7.390625 C 17.285156 -7.023438 17.035156 -6.585938 16.765625 -6.078125 C 16.523438 -5.640625 16.203125 -5.070312 15.796875 -4.375 C 15.390625 -3.6875 14.929688 -3.015625 14.421875 -2.359375 C 13.921875 -1.703125 13.382812 -1.144531 12.8125 -0.6875 C 12.238281 -0.226562 11.648438 0 11.046875 0 C 9.929688 0 9.203125 -0.992188 8.859375 -2.984375 C 8.753906 -3.554688 8.6875 -4.320312 8.65625 -5.28125 C 8.625 -6.25 8.609375 -7.085938 8.609375 -7.796875 C 8.367188 -7.628906 8.078125 -7.238281 7.734375 -6.625 C 7.398438 -6.019531 7.066406 -5.335938 6.734375 -4.578125 C 6.398438 -3.816406 6.085938 -3.082031 5.796875 -2.375 C 5.515625 -1.664062 5.285156 -1.128906 5.109375 -0.765625 C 4.703125 0.285156 4.375 1.332031 4.125 2.375 C 3.875 3.425781 3.597656 4.425781 3.296875 5.375 C 3.117188 5.90625 2.921875 6.25 2.703125 6.40625 C 2.484375 6.5625 2.140625 6.640625 1.671875 6.640625 C 1.296875 6.640625 0.988281 6.316406 0.75 5.671875 C 0.519531 5.023438 0.328125 4.222656 0.171875 3.265625 C 0.0234375 2.304688 -0.078125 1.3125 -0.140625 0.28125 C -0.210938 -0.75 -0.253906 -1.675781 -0.265625 -2.5 C -0.285156 -3.332031 -0.296875 -3.898438 -0.296875 -4.203125 Z M -0.296875 -4.203125 "/></g></g></g><g fill="#cb102c" fill-opacity="1"><g transform="translate(35.94054, 50.352798)"><g><path d="M 2.328125 -9.171875 C 2.972656 -9.503906 3.679688 -9.960938 4.453125 -10.546875 C 5.234375 -11.140625 5.65625 -11.84375 5.71875 -12.65625 C 5.28125 -12.59375 4.816406 -12.359375 4.328125 -11.953125 C 3.835938 -11.546875 3.414062 -11.085938 3.0625 -10.578125 C 2.707031 -10.078125 2.460938 -9.609375 2.328125 -9.171875 Z M 0.046875 -7.953125 C 0.046875 -8.796875 0.320312 -9.707031 0.875 -10.6875 C 1.4375 -11.664062 2.128906 -12.5 2.953125 -13.1875 C 3.785156 -13.882812 4.609375 -14.234375 5.421875 -14.234375 C 6.535156 -14.234375 7.113281 -13.8125 7.15625 -12.96875 C 7.207031 -12.125 6.847656 -11.210938 6.078125 -10.234375 C 5.671875 -9.796875 5.0625 -9.285156 4.25 -8.703125 C 3.4375 -8.128906 2.644531 -7.8125 1.875 -7.75 C 1.875 -7.207031 1.890625 -6.722656 1.921875 -6.296875 C 1.953125 -5.878906 2.191406 -5.453125 2.640625 -5.015625 C 3.078125 -4.578125 3.628906 -4.359375 4.296875 -4.359375 C 5.179688 -4.359375 6.09375 -4.632812 7.03125 -5.1875 C 7.976562 -5.75 8.707031 -6.210938 9.21875 -6.578125 C 9.414062 -6.753906 9.570312 -6.890625 9.6875 -6.984375 C 9.8125 -7.085938 9.957031 -7.207031 10.125 -7.34375 C 10.832031 -7.882812 11.28125 -8.28125 11.46875 -8.53125 C 11.65625 -8.78125 11.816406 -8.945312 11.953125 -9.03125 C 12.085938 -9.125 12.40625 -9.171875 12.90625 -9.171875 C 12.976562 -8.796875 13.003906 -8.539062 12.984375 -8.40625 C 12.972656 -8.269531 12.847656 -8.066406 12.609375 -7.796875 C 12.003906 -7.191406 11.234375 -6.5 10.296875 -5.71875 C 9.367188 -4.945312 8.375 -4.269531 7.3125 -3.6875 C 6.25 -3.113281 5.195312 -2.828125 4.15625 -2.828125 C 3.613281 -2.828125 3.097656 -2.921875 2.609375 -3.109375 C 2.117188 -3.296875 1.65625 -3.609375 1.21875 -4.046875 C 0.601562 -4.660156 0.253906 -5.285156 0.171875 -5.921875 C 0.0859375 -6.566406 0.046875 -7.242188 0.046875 -7.953125 Z M 0.046875 -7.953125 "/></g></g></g></g></g><g transform="matrix(1, 0, 0, 1, 91, 140)"><g clip-path="url(#08524329a5)"><g clip-path="url(#e6f0ff9b5f)"><g fill="#cb102c" fill-opacity="1"><g transform="translate(0.46014, 54.223543)"><g><path d="M 3.546875 -34.265625 L 0 -34.265625 L 0 -35.484375 C 1.601562 -35.578125 3.351562 -36.007812 5.25 -36.78125 C 7.144531 -37.5625 8.921875 -38.613281 10.578125 -39.9375 C 12.234375 -41.269531 13.4375 -42.785156 14.1875 -44.484375 L 14.1875 -35.484375 L 19.859375 -35.484375 L 19.859375 -34.265625 L 14.1875 -34.265625 L 14.1875 -10.921875 C 14.1875 -5.816406 16.222656 -3.476562 20.296875 -3.90625 L 20.296875 -2.625 L 20.21875 -2.546875 C 18.75 -1.796875 17.289062 -1.179688 15.84375 -0.703125 C 14.40625 -0.234375 12.957031 0 11.5 0 C 9.175781 0 7.457031 -0.4375 6.34375 -1.3125 C 5.238281 -2.1875 4.492188 -3.40625 4.109375 -4.96875 C 3.734375 -6.53125 3.546875 -8.28125 3.546875 -10.21875 Z M 3.546875 -34.265625 "/></g></g></g></g><g fill="#cb102c" fill-opacity="1"><g transform="translate(18.901637, 54.223543)"><g><path d="M 28.453125 0 C 27.503906 0 26.660156 -0.304688 25.921875 -0.921875 C 25.191406 -1.535156 24.828125 -2.71875 24.828125 -4.46875 L 24.828125 -6.171875 C 23.171875 -4.179688 21.132812 -2.65625 18.71875 -1.59375 C 16.3125 -0.53125 13.785156 0 11.140625 0 C 7.492188 0 4.722656 -0.921875 2.828125 -2.765625 C 0.941406 -4.609375 0 -6.757812 0 -9.21875 C 0 -11.394531 0.519531 -13.238281 1.5625 -14.75 C 2.601562 -16.269531 3.9375 -17.582031 5.5625 -18.6875 C 7.195312 -19.800781 8.945312 -20.804688 10.8125 -21.703125 C 12.6875 -22.609375 14.484375 -23.519531 16.203125 -24.4375 C 17.929688 -25.363281 19.390625 -26.414062 20.578125 -27.59375 C 21.898438 -28.925781 22.488281 -30.109375 22.34375 -31.140625 C 22.207031 -32.179688 21.601562 -32.984375 20.53125 -33.546875 C 19.46875 -34.117188 18.207031 -34.359375 16.75 -34.265625 C 14.332031 -34.171875 12.601562 -33.578125 11.5625 -32.484375 C 10.519531 -31.398438 10.128906 -30.234375 10.390625 -28.984375 C 10.648438 -27.734375 11.488281 -26.726562 12.90625 -25.96875 C 12.289062 -24.925781 11.257812 -24.164062 9.8125 -23.6875 C 8.375 -23.21875 7.085938 -23.007812 5.953125 -23.0625 C 4.492188 -23.101562 3.132812 -23.503906 1.875 -24.265625 C 0.625 -25.023438 0 -26.207031 0 -27.8125 C 0 -29.1875 0.445312 -30.34375 1.34375 -31.28125 C 2.25 -32.226562 3.410156 -32.972656 4.828125 -33.515625 C 6.242188 -34.066406 7.78125 -34.484375 9.4375 -34.765625 C 11.09375 -35.046875 12.664062 -35.234375 14.15625 -35.328125 C 15.644531 -35.429688 16.910156 -35.484375 17.953125 -35.484375 C 19.609375 -35.484375 21.441406 -35.335938 23.453125 -35.046875 C 25.460938 -34.765625 27.375 -34.242188 29.1875 -33.484375 C 31.007812 -32.734375 32.515625 -31.671875 33.703125 -30.296875 C 34.890625 -28.921875 35.484375 -27.144531 35.484375 -24.96875 L 35.484375 -5.671875 C 35.484375 -3.878906 35.847656 -2.6875 36.578125 -2.09375 C 37.304688 -1.5 38.144531 -1.203125 39.09375 -1.203125 L 39.09375 0 Z M 23.421875 -30.4375 C 23.421875 -29.113281 22.929688 -27.835938 21.953125 -26.609375 C 20.984375 -25.378906 20.03125 -24.316406 19.09375 -23.421875 C 17.625 -22.085938 16.257812 -20.84375 15 -19.6875 C 13.75 -18.53125 12.734375 -17.238281 11.953125 -15.8125 C 11.171875 -14.394531 10.757812 -12.625 10.71875 -10.5 C 10.664062 -8.28125 11.226562 -6.484375 12.40625 -5.109375 C 13.59375 -3.734375 15.0625 -3.046875 16.8125 -3.046875 C 18.519531 -3.046875 19.972656 -3.472656 21.171875 -4.328125 C 22.378906 -5.179688 23.289062 -6.304688 23.90625 -7.703125 C 24.519531 -9.097656 24.828125 -10.578125 24.828125 -12.140625 L 24.828125 -23.421875 C 24.828125 -26.492188 24.359375 -28.832031 23.421875 -30.4375 Z M 23.421875 -30.4375 "/></g></g></g><g fill="#cb102c" fill-opacity="1"><g transform="translate(56.282374, 54.223543)"><g><path d="M 3.546875 -34.265625 L 0 -34.265625 L 0 -35.484375 C 1.601562 -35.578125 3.351562 -36.007812 5.25 -36.78125 C 7.144531 -37.5625 8.921875 -38.613281 10.578125 -39.9375 C 12.234375 -41.269531 13.4375 -42.785156 14.1875 -44.484375 L 14.1875 -35.484375 L 19.859375 -35.484375 L 19.859375 -34.265625 L 14.1875 -34.265625 L 14.1875 -10.921875 C 14.1875 -5.816406 16.222656 -3.476562 20.296875 -3.90625 L 20.296875 -2.625 L 20.21875 -2.546875 C 18.75 -1.796875 17.289062 -1.179688 15.84375 -0.703125 C 14.40625 -0.234375 12.957031 0 11.5 0 C 9.175781 0 7.457031 -0.4375 6.34375 -1.3125 C 5.238281 -2.1875 4.492188 -3.40625 4.109375 -4.96875 C 3.734375 -6.53125 3.546875 -8.28125 3.546875 -10.21875 Z M 3.546875 -34.265625 "/></g></g></g><g fill="#cb102c" fill-opacity="1"><g transform="translate(74.723871, 54.223543)"><g><path d="M 28.453125 0 C 27.503906 0 26.660156 -0.304688 25.921875 -0.921875 C 25.191406 -1.535156 24.828125 -2.71875 24.828125 -4.46875 L 24.828125 -6.171875 C 23.171875 -4.179688 21.132812 -2.65625 18.71875 -1.59375 C 16.3125 -0.53125 13.785156 0 11.140625 0 C 7.492188 0 4.722656 -0.921875 2.828125 -2.765625 C 0.941406 -4.609375 0 -6.757812 0 -9.21875 C 0 -11.394531 0.519531 -13.238281 1.5625 -14.75 C 2.601562 -16.269531 3.9375 -17.582031 5.5625 -18.6875 C 7.195312 -19.800781 8.945312 -20.804688 10.8125 -21.703125 C 12.6875 -22.609375 14.484375 -23.519531 16.203125 -24.4375 C 17.929688 -25.363281 19.390625 -26.414062 20.578125 -27.59375 C 21.898438 -28.925781 22.488281 -30.109375 22.34375 -31.140625 C 22.207031 -32.179688 21.601562 -32.984375 20.53125 -33.546875 C 19.46875 -34.117188 18.207031 -34.359375 16.75 -34.265625 C 14.332031 -34.171875 12.601562 -33.578125 11.5625 -32.484375 C 10.519531 -31.398438 10.128906 -30.234375 10.390625 -28.984375 C 10.648438 -27.734375 11.488281 -26.726562 12.90625 -25.96875 C 12.289062 -24.925781 11.257812 -24.164062 9.8125 -23.6875 C 8.375 -23.21875 7.085938 -23.007812 5.953125 -23.0625 C 4.492188 -23.101562 3.132812 -23.503906 1.875 -24.265625 C 0.625 -25.023438 0 -26.207031 0 -27.8125 C 0 -29.1875 0.445312 -30.34375 1.34375 -31.28125 C 2.25 -32.226562 3.410156 -32.972656 4.828125 -33.515625 C 6.242188 -34.066406 7.78125 -34.484375 9.4375 -34.765625 C 11.09375 -35.046875 12.664062 -35.234375 14.15625 -35.328125 C 15.644531 -35.429688 16.910156 -35.484375 17.953125 -35.484375 C 19.609375 -35.484375 21.441406 -35.335938 23.453125 -35.046875 C 25.460938 -34.765625 27.375 -34.242188 29.1875 -33.484375 C 31.007812 -32.734375 32.515625 -31.671875 33.703125 -30.296875 C 34.890625 -28.921875 35.484375 -27.144531 35.484375 -24.96875 L 35.484375 -5.671875 C 35.484375 -3.878906 35.847656 -2.6875 36.578125 -2.09375 C 37.304688 -1.5 38.144531 -1.203125 39.09375 -1.203125 L 39.09375 0 Z M 23.421875 -30.4375 C 23.421875 -29.113281 22.929688 -27.835938 21.953125 -26.609375 C 20.984375 -25.378906 20.03125 -24.316406 19.09375 -23.421875 C 17.625 -22.085938 16.257812 -20.84375 15 -19.6875 C 13.75 -18.53125 12.734375 -17.238281 11.953125 -15.8125 C 11.171875 -14.394531 10.757812 -12.625 10.71875 -10.5 C 10.664062 -8.28125 11.226562 -6.484375 12.40625 -5.109375 C 13.59375 -3.734375 15.0625 -3.046875 16.8125 -3.046875 C 18.519531 -3.046875 19.972656 -3.472656 21.171875 -4.328125 C 22.378906 -5.179688 23.289062 -6.304688 23.90625 -7.703125 C 24.519531 -9.097656 24.828125 -10.578125 24.828125 -12.140625 L 24.828125 -23.421875 C 24.828125 -26.492188 24.359375 -28.832031 23.421875 -30.4375 Z M 23.421875 -30.4375 "/></g></g></g><g fill="#cb102c" fill-opacity="1"><g transform="translate(112.104608, 54.223543)"><g><path d="M 3.484375 -34.34375 L 3.328125 -35.546875 C 4.890625 -35.734375 5.976562 -36.394531 6.59375 -37.53125 C 6.5 -37.488281 6.335938 -37.46875 6.109375 -37.46875 C 4.398438 -37.46875 2.953125 -38.066406 1.765625 -39.265625 C 0.585938 -40.472656 0 -41.90625 0 -43.5625 C 0 -45.269531 0.585938 -46.710938 1.765625 -47.890625 C 2.953125 -49.078125 4.398438 -49.671875 6.109375 -49.671875 C 7.753906 -49.671875 9.179688 -49.078125 10.390625 -47.890625 C 11.597656 -46.710938 12.203125 -45.269531 12.203125 -43.5625 C 12.203125 -41.101562 11.335938 -39.019531 9.609375 -37.3125 C 7.890625 -35.613281 5.847656 -34.625 3.484375 -34.34375 Z M 3.484375 -34.34375 "/></g></g></g><g fill="#cb102c" fill-opacity="1"><g transform="translate(123.878351, 54.223543)"><g><path d="M 35.484375 -10.5 C 35.484375 -8.320312 34.898438 -6.546875 33.734375 -5.171875 C 32.578125 -3.804688 31.085938 -2.742188 29.265625 -1.984375 C 27.441406 -1.222656 25.523438 -0.703125 23.515625 -0.421875 C 21.503906 -0.140625 19.648438 0 17.953125 0 C 16.910156 0 15.644531 -0.046875 14.15625 -0.140625 C 12.664062 -0.234375 11.09375 -0.421875 9.4375 -0.703125 C 7.78125 -0.992188 6.242188 -1.410156 4.828125 -1.953125 C 3.410156 -2.492188 2.25 -3.238281 1.34375 -4.1875 C 0.445312 -5.132812 0 -6.289062 0 -7.65625 C 0 -9.3125 0.625 -10.503906 1.875 -11.234375 C 3.132812 -11.972656 4.492188 -12.367188 5.953125 -12.421875 C 7.046875 -12.460938 8.3125 -12.242188 9.75 -11.765625 C 11.195312 -11.296875 12.226562 -10.539062 12.84375 -9.5 C 11.46875 -8.789062 10.648438 -7.796875 10.390625 -6.515625 C 10.128906 -5.242188 10.519531 -4.078125 11.5625 -3.015625 C 12.601562 -1.953125 14.332031 -1.347656 16.75 -1.203125 C 18.539062 -1.109375 20.171875 -1.304688 21.640625 -1.796875 C 23.109375 -2.296875 24.265625 -2.957031 25.109375 -3.78125 C 25.960938 -4.613281 26.390625 -5.539062 26.390625 -6.5625 C 26.390625 -7.582031 25.820312 -8.5625 24.6875 -9.5 C 23.550781 -10.445312 21.707031 -11.253906 19.15625 -11.921875 C 17.832031 -12.296875 16.316406 -12.679688 14.609375 -13.078125 C 12.910156 -13.484375 11.207031 -13.984375 9.5 -14.578125 C 7.800781 -15.171875 6.226562 -15.914062 4.78125 -16.8125 C 3.34375 -17.707031 2.1875 -18.816406 1.3125 -20.140625 C 0.4375 -21.472656 0 -23.082031 0 -24.96875 C 0 -27.144531 0.578125 -28.921875 1.734375 -30.296875 C 2.898438 -31.671875 4.390625 -32.734375 6.203125 -33.484375 C 8.023438 -34.242188 9.941406 -34.765625 11.953125 -35.046875 C 13.960938 -35.335938 15.820312 -35.484375 17.53125 -35.484375 C 18.570312 -35.484375 19.835938 -35.429688 21.328125 -35.328125 C 22.816406 -35.234375 24.382812 -35.046875 26.03125 -34.765625 C 27.6875 -34.484375 29.222656 -34.066406 30.640625 -33.515625 C 32.066406 -32.972656 33.226562 -32.226562 34.125 -31.28125 C 35.03125 -30.34375 35.484375 -29.1875 35.484375 -27.8125 C 35.484375 -26.207031 34.851562 -25.023438 33.59375 -24.265625 C 32.34375 -23.503906 30.984375 -23.101562 29.515625 -23.0625 C 28.429688 -23.007812 27.164062 -23.21875 25.71875 -23.6875 C 24.28125 -24.164062 23.253906 -24.925781 22.640625 -25.96875 C 24.054688 -26.726562 24.878906 -27.734375 25.109375 -28.984375 C 25.347656 -30.234375 24.945312 -31.398438 23.90625 -32.484375 C 22.863281 -33.578125 21.140625 -34.171875 18.734375 -34.265625 C 16.929688 -34.359375 15.296875 -34.15625 13.828125 -33.65625 C 12.367188 -33.164062 11.210938 -32.503906 10.359375 -31.671875 C 9.503906 -30.847656 9.078125 -29.925781 9.078125 -28.90625 C 9.078125 -27.894531 9.644531 -26.914062 10.78125 -25.96875 C 11.914062 -25.019531 13.757812 -24.21875 16.3125 -23.5625 C 17.644531 -23.226562 19.160156 -22.847656 20.859375 -22.421875 C 22.566406 -21.992188 24.269531 -21.484375 25.96875 -20.890625 C 27.664062 -20.304688 29.234375 -19.5625 30.671875 -18.65625 C 32.117188 -17.757812 33.28125 -16.648438 34.15625 -15.328125 C 35.039062 -14.003906 35.484375 -12.394531 35.484375 -10.5 Z M 35.484375 -10.5 "/></g></g></g></g></g><g transform="matrix(1, 0, 0, 1, 113, 196)"><g clip-path="url(#4a47be627f)"><g fill="#cb102c" fill-opacity="1"><g transform="translate(1.755307, 55.894017)"><g><path d="M 36.671875 -25.640625 C 36.671875 -23.296875 35.859375 -21.507812 34.234375 -20.28125 C 32.617188 -19.050781 30.785156 -18.390625 28.734375 -18.296875 C 26.816406 -18.242188 25.132812 -18.742188 23.6875 -19.796875 C 22.25 -20.859375 21.457031 -22.390625 21.3125 -24.390625 C 22.78125 -24.390625 23.894531 -24.925781 24.65625 -26 C 25.414062 -27.082031 25.796875 -28.285156 25.796875 -29.609375 C 25.835938 -31.378906 25.488281 -32.726562 24.75 -33.65625 C 24.019531 -34.582031 23.078125 -35.144531 21.921875 -35.34375 C 20.773438 -35.539062 19.578125 -35.429688 18.328125 -35.015625 C 17.078125 -34.597656 15.941406 -33.945312 14.921875 -33.0625 C 13.492188 -31.789062 12.398438 -30.25 11.640625 -28.4375 C 10.890625 -26.625 10.488281 -24.710938 10.4375 -22.703125 C 10.382812 -20.691406 10.675781 -18.78125 11.3125 -16.96875 C 12.4375 -13.988281 14.320312 -11.75 16.96875 -10.25 C 19.613281 -8.757812 22.429688 -8.035156 25.421875 -8.078125 C 27.335938 -8.128906 29.222656 -8.4375 31.078125 -9 C 32.941406 -9.5625 34.582031 -10.332031 36 -11.3125 L 36.671875 -10.734375 C 35.734375 -8.429688 34.347656 -6.484375 32.515625 -4.890625 C 30.679688 -3.296875 28.597656 -2.082031 26.265625 -1.25 C 23.941406 -0.414062 21.554688 0 19.109375 0 C 15.578125 0 12.363281 -0.78125 9.46875 -2.34375 C 6.582031 -3.914062 4.269531 -6.082031 2.53125 -8.84375 C 0.789062 -11.613281 -0.078125 -14.765625 -0.078125 -18.296875 C -0.078125 -22.066406 0.875 -25.320312 2.78125 -28.0625 C 4.695312 -30.8125 7.207031 -32.945312 10.3125 -34.46875 C 13.425781 -35.988281 16.773438 -36.75 20.359375 -36.75 C 21.921875 -36.75 23.644531 -36.578125 25.53125 -36.234375 C 27.414062 -35.890625 29.203125 -35.300781 30.890625 -34.46875 C 32.585938 -33.632812 33.972656 -32.503906 35.046875 -31.078125 C 36.128906 -29.660156 36.671875 -27.847656 36.671875 -25.640625 Z M 36.671875 -25.640625 "/></g></g></g><g fill="#cb102c" fill-opacity="1"><g transform="translate(36.580778, 55.894017)"><g><path d="M 29.46875 0 C 28.488281 0 27.617188 -0.316406 26.859375 -0.953125 C 26.097656 -1.585938 25.71875 -2.8125 25.71875 -4.625 L 25.71875 -6.390625 C 24 -4.335938 21.890625 -2.757812 19.390625 -1.65625 C 16.898438 -0.550781 14.28125 0 11.53125 0 C 7.757812 0 4.894531 -0.953125 2.9375 -2.859375 C 0.976562 -4.773438 0 -7.003906 0 -9.546875 C 0 -11.804688 0.535156 -13.71875 1.609375 -15.28125 C 2.691406 -16.851562 4.078125 -18.210938 5.765625 -19.359375 C 7.453125 -20.515625 9.265625 -21.554688 11.203125 -22.484375 C 13.140625 -23.410156 15 -24.351562 16.78125 -25.3125 C 18.570312 -26.269531 20.082031 -27.359375 21.3125 -28.578125 C 22.6875 -29.953125 23.296875 -31.175781 23.140625 -32.25 C 22.992188 -33.332031 22.367188 -34.164062 21.265625 -34.75 C 20.171875 -35.34375 18.863281 -35.59375 17.34375 -35.5 C 14.84375 -35.394531 13.050781 -34.78125 11.96875 -33.65625 C 10.894531 -32.53125 10.492188 -31.316406 10.765625 -30.015625 C 11.035156 -28.722656 11.90625 -27.679688 13.375 -26.890625 C 12.738281 -25.816406 11.671875 -25.035156 10.171875 -24.546875 C 8.679688 -24.054688 7.347656 -23.832031 6.171875 -23.875 C 4.648438 -23.925781 3.238281 -24.34375 1.9375 -25.125 C 0.644531 -25.914062 0 -27.144531 0 -28.8125 C 0 -30.226562 0.460938 -31.425781 1.390625 -32.40625 C 2.328125 -33.382812 3.53125 -34.15625 5 -34.71875 C 6.46875 -35.28125 8.054688 -35.707031 9.765625 -36 C 11.484375 -36.300781 13.113281 -36.5 14.65625 -36.59375 C 16.195312 -36.695312 17.507812 -36.75 18.59375 -36.75 C 20.300781 -36.75 22.195312 -36.597656 24.28125 -36.296875 C 26.363281 -36.003906 28.347656 -35.46875 30.234375 -34.6875 C 32.117188 -33.90625 33.675781 -32.800781 34.90625 -31.375 C 36.132812 -29.957031 36.75 -28.117188 36.75 -25.859375 L 36.75 -5.875 C 36.75 -4.019531 37.125 -2.785156 37.875 -2.171875 C 38.632812 -1.554688 39.503906 -1.25 40.484375 -1.25 L 40.484375 0 Z M 24.25 -31.53125 C 24.25 -30.15625 23.742188 -28.828125 22.734375 -27.546875 C 21.734375 -26.273438 20.742188 -25.175781 19.765625 -24.25 C 18.242188 -22.875 16.832031 -21.585938 15.53125 -20.390625 C 14.238281 -19.191406 13.1875 -17.859375 12.375 -16.390625 C 11.570312 -14.921875 11.144531 -13.082031 11.09375 -10.875 C 11.039062 -8.570312 11.628906 -6.707031 12.859375 -5.28125 C 14.085938 -3.863281 15.609375 -3.15625 17.421875 -3.15625 C 19.179688 -3.15625 20.6875 -3.597656 21.9375 -4.484375 C 23.1875 -5.367188 24.128906 -6.53125 24.765625 -7.96875 C 25.398438 -9.414062 25.71875 -10.945312 25.71875 -12.5625 L 25.71875 -24.25 C 25.71875 -27.4375 25.226562 -29.863281 24.25 -31.53125 Z M 24.25 -31.53125 "/></g></g></g><g fill="#cb102c" fill-opacity="1"><g transform="translate(75.300325, 55.894017)"><g><path d="M 11.015625 0 L 0 0 L 0 -1.25 C 0.976562 -1.25 1.832031 -1.554688 2.5625 -2.171875 C 3.300781 -2.785156 3.671875 -4.019531 3.671875 -5.875 L 3.671875 -45.5625 C 3.671875 -47.425781 3.300781 -48.660156 2.5625 -49.265625 C 1.832031 -49.878906 0.976562 -50.1875 0 -50.1875 L 0 -51.4375 C 2.445312 -51.539062 5.015625 -51.945312 7.703125 -52.65625 C 10.398438 -53.363281 12.734375 -54.109375 14.703125 -54.890625 L 14.703125 -23.296875 C 16.171875 -24.960938 17.660156 -26.601562 19.171875 -28.21875 C 20.691406 -29.832031 22.148438 -31.265625 23.546875 -32.515625 C 24.941406 -33.765625 26.15625 -34.679688 27.1875 -35.265625 C 28.019531 -35.710938 28.890625 -36.070312 29.796875 -36.34375 C 30.703125 -36.613281 31.644531 -36.75 32.625 -36.75 C 34.726562 -36.75 36.550781 -36.160156 38.09375 -34.984375 C 39.644531 -33.804688 40.421875 -31.820312 40.421875 -29.03125 C 40.421875 -26.875 39.769531 -25.15625 38.46875 -23.875 C 37.164062 -22.601562 35.5625 -21.921875 33.65625 -21.828125 C 32.238281 -21.773438 30.914062 -22.164062 29.6875 -23 C 28.457031 -23.832031 27.648438 -24.984375 27.265625 -26.453125 C 28.335938 -26.546875 29.054688 -26.984375 29.421875 -27.765625 C 29.796875 -28.554688 29.859375 -29.296875 29.609375 -29.984375 C 29.410156 -30.523438 28.992188 -30.976562 28.359375 -31.34375 C 27.722656 -31.707031 26.914062 -31.742188 25.9375 -31.453125 C 25.007812 -31.160156 23.929688 -30.523438 22.703125 -29.546875 L 36.375 -5.734375 C 37.007812 -4.703125 37.671875 -3.695312 38.359375 -2.71875 C 39.046875 -1.738281 40 -1.25 41.21875 -1.25 L 41.21875 0 L 29.25 0 C 28.3125 0 27.523438 -0.328125 26.890625 -0.984375 C 26.253906 -1.648438 25.664062 -2.398438 25.125 -3.234375 L 14.703125 -21.3125 L 14.703125 -4.625 C 14.703125 -2.8125 14.332031 -1.585938 13.59375 -0.953125 C 12.863281 -0.316406 12.003906 0 11.015625 0 Z M 11.015625 0 "/></g></g></g><g fill="#cb102c" fill-opacity="1"><g transform="translate(114.681128, 55.894017)"><g><path d="M 36.75 -25.640625 C 36.75 -27.703125 36.171875 -29.441406 35.015625 -30.859375 C 33.859375 -32.285156 32.382812 -33.425781 30.59375 -34.28125 C 28.8125 -35.132812 26.953125 -35.757812 25.015625 -36.15625 C 23.085938 -36.550781 21.3125 -36.75 19.6875 -36.75 C 16.113281 -36.75 12.832031 -35.988281 9.84375 -34.46875 C 6.851562 -32.945312 4.460938 -30.8125 2.671875 -28.0625 C 0.890625 -25.320312 0 -22.09375 0 -18.375 C 0 -14.789062 0.851562 -11.613281 2.5625 -8.84375 C 4.28125 -6.082031 6.597656 -3.914062 9.515625 -2.34375 C 12.429688 -0.78125 15.628906 0 19.109375 0 C 21.609375 0 24.019531 -0.414062 26.34375 -1.25 C 28.664062 -2.082031 30.742188 -3.296875 32.578125 -4.890625 C 34.421875 -6.484375 35.8125 -8.429688 36.75 -10.734375 L 36 -11.3125 C 33.894531 -9.789062 31.882812 -8.921875 29.96875 -8.703125 C 28.0625 -8.484375 26.519531 -8.703125 25.34375 -9.359375 C 24.175781 -10.023438 23.640625 -10.898438 23.734375 -11.984375 C 23.828125 -13.109375 24.289062 -14.007812 25.125 -14.6875 C 25.957031 -15.375 26.898438 -15.925781 27.953125 -16.34375 C 29.015625 -16.757812 29.960938 -17.164062 30.796875 -17.5625 C 32.359375 -18.300781 33.738281 -19.304688 34.9375 -20.578125 C 36.144531 -21.847656 36.75 -23.535156 36.75 -25.640625 Z M 14.921875 -33.0625 C 16.390625 -34.382812 17.859375 -35.15625 19.328125 -35.375 C 20.796875 -35.601562 22.082031 -35.375 23.1875 -34.6875 C 24.289062 -34 25.070312 -32.957031 25.53125 -31.5625 C 26 -30.164062 25.960938 -28.507812 25.421875 -26.59375 C 25.179688 -25.664062 24.789062 -24.785156 24.25 -23.953125 C 23.707031 -23.117188 23.171875 -22.285156 22.640625 -21.453125 C 21.117188 -19.054688 20.394531 -16.632812 20.46875 -14.1875 C 20.539062 -11.738281 21.925781 -9.703125 24.625 -8.078125 C 21.78125 -8.179688 19.117188 -8.976562 16.640625 -10.46875 C 14.171875 -11.96875 12.421875 -14.132812 11.390625 -16.96875 C 10.753906 -18.78125 10.445312 -20.691406 10.46875 -22.703125 C 10.5 -24.710938 10.890625 -26.625 11.640625 -28.4375 C 12.398438 -30.25 13.492188 -31.789062 14.921875 -33.0625 Z M 14.921875 -33.0625 "/></g></g></g><g fill="#cb102c" fill-opacity="1"><g transform="translate(149.506599, 55.894017)"><g><path d="M 36.75 -10.875 C 36.75 -8.625 36.144531 -6.785156 34.9375 -5.359375 C 33.738281 -3.941406 32.195312 -2.835938 30.3125 -2.046875 C 28.425781 -1.265625 26.441406 -0.726562 24.359375 -0.4375 C 22.273438 -0.144531 20.351562 0 18.59375 0 C 17.507812 0 16.195312 -0.046875 14.65625 -0.140625 C 13.113281 -0.242188 11.484375 -0.441406 9.765625 -0.734375 C 8.054688 -1.023438 6.46875 -1.453125 5 -2.015625 C 3.53125 -2.578125 2.328125 -3.347656 1.390625 -4.328125 C 0.460938 -5.316406 0 -6.519531 0 -7.9375 C 0 -9.65625 0.644531 -10.890625 1.9375 -11.640625 C 3.238281 -12.398438 4.648438 -12.804688 6.171875 -12.859375 C 7.296875 -12.910156 8.601562 -12.691406 10.09375 -12.203125 C 11.59375 -11.710938 12.660156 -10.925781 13.296875 -9.84375 C 11.878906 -9.113281 11.035156 -8.085938 10.765625 -6.765625 C 10.492188 -5.441406 10.894531 -4.226562 11.96875 -3.125 C 13.050781 -2.019531 14.84375 -1.394531 17.34375 -1.25 C 19.207031 -1.15625 20.894531 -1.363281 22.40625 -1.875 C 23.925781 -2.382812 25.128906 -3.066406 26.015625 -3.921875 C 26.898438 -4.785156 27.34375 -5.742188 27.34375 -6.796875 C 27.34375 -7.847656 26.753906 -8.863281 25.578125 -9.84375 C 24.398438 -10.820312 22.488281 -11.65625 19.84375 -12.34375 C 18.46875 -12.738281 16.898438 -13.144531 15.140625 -13.5625 C 13.378906 -13.976562 11.613281 -14.488281 9.84375 -15.09375 C 8.082031 -15.707031 6.453125 -16.476562 4.953125 -17.40625 C 3.460938 -18.34375 2.265625 -19.492188 1.359375 -20.859375 C 0.453125 -22.234375 0 -23.898438 0 -25.859375 C 0 -28.117188 0.597656 -29.957031 1.796875 -31.375 C 2.992188 -32.800781 4.535156 -33.90625 6.421875 -34.6875 C 8.316406 -35.46875 10.300781 -36.003906 12.375 -36.296875 C 14.457031 -36.597656 16.382812 -36.75 18.15625 -36.75 C 19.226562 -36.75 20.535156 -36.695312 22.078125 -36.59375 C 23.617188 -36.5 25.25 -36.300781 26.96875 -36 C 28.6875 -35.707031 30.28125 -35.28125 31.75 -34.71875 C 33.21875 -34.15625 34.414062 -33.382812 35.34375 -32.40625 C 36.28125 -31.425781 36.75 -30.226562 36.75 -28.8125 C 36.75 -27.144531 36.097656 -25.914062 34.796875 -25.125 C 33.492188 -24.34375 32.082031 -23.925781 30.5625 -23.875 C 29.4375 -23.832031 28.125 -24.054688 26.625 -24.546875 C 25.132812 -25.035156 24.070312 -25.816406 23.4375 -26.890625 C 24.90625 -27.679688 25.757812 -28.722656 26 -30.015625 C 26.25 -31.316406 25.832031 -32.53125 24.75 -33.65625 C 23.675781 -34.78125 21.894531 -35.394531 19.40625 -35.5 C 17.539062 -35.59375 15.847656 -35.378906 14.328125 -34.859375 C 12.804688 -34.347656 11.601562 -33.664062 10.71875 -32.8125 C 9.84375 -31.957031 9.40625 -31 9.40625 -29.9375 C 9.40625 -28.882812 9.992188 -27.867188 11.171875 -26.890625 C 12.347656 -25.910156 14.257812 -25.078125 16.90625 -24.390625 C 18.269531 -24.046875 19.832031 -23.65625 21.59375 -23.21875 C 23.363281 -22.78125 25.128906 -22.253906 26.890625 -21.640625 C 28.660156 -21.023438 30.289062 -20.253906 31.78125 -19.328125 C 33.269531 -18.398438 34.46875 -17.25 35.375 -15.875 C 36.289062 -14.5 36.75 -12.832031 36.75 -10.875 Z M 36.75 -10.875 "/></g></g></g></g></g><path fill="#cb102c" d="M 281.183594 157.015625 C 280.957031 156.757812 280.640625 156.414062 280.882812 156.078125 C 281.136719 155.761719 281.539062 155.777344 281.917969 155.976562 C 283.683594 156.902344 283.066406 159.539062 280.777344 160.1875 C 275.070312 161.796875 272.234375 153.636719 276.859375 150.042969 C 280.699219 147.078125 285.34375 149.195312 286.996094 152.855469 C 289.566406 158.566406 283.613281 164.382812 277.40625 164.3125 C 273.105469 164.261719 260.40625 157.945312 258.421875 167.085938 C 257.433594 171.648438 266.097656 176.800781 275.132812 171.296875 C 277.996094 169.554688 280.542969 167.804688 282.742188 165.261719 C 286.824219 160.535156 292.351562 157.652344 296.695312 160.035156 C 302.621094 163.289062 303.984375 169.792969 300.574219 175.753906 C 295.121094 185.292969 282.402344 184.871094 279.476562 182.082031 C 278.890625 181.519531 279.074219 180.988281 279.878906 180.859375 C 286.414062 179.832031 292.535156 179.765625 297.691406 172.34375 C 299.027344 170.425781 299.53125 168.304688 299.15625 166.007812 C 298.855469 164.144531 297.777344 162.90625 295.96875 162.261719 C 293.207031 161.28125 290.660156 161.679688 288.257812 163.285156 C 283.441406 166.511719 282.84375 169.136719 276.140625 172.90625 C 265.546875 178.859375 255.152344 171.835938 256.546875 166.144531 C 257.808594 161 263.148438 159.363281 268.332031 160.34375 C 273.273438 161.28125 277.402344 164.140625 281.703125 161.199219 C 285.933594 158.304688 285.867188 154.5 284.496094 152.734375 C 283.226562 151.09375 280.597656 151.535156 278.988281 152.960938 C 277.457031 154.296875 277.152344 156.046875 277.628906 157.183594 C 278.347656 158.886719 280.691406 158.636719 281.183594 157.015625 " fill-opacity="1" fill-rule="nonzero"/><path fill="#cb102c" d="M 273.636719 204.621094 C 275.699219 205.367188 276.558594 205.300781 281.007812 205.296875 C 281.5 205.296875 282 205.265625 282.480469 205.171875 C 284.214844 204.832031 285.96875 204.914062 287.714844 204.871094 C 288.199219 204.859375 288.6875 204.992188 289.257812 205.066406 C 289.734375 201.605469 288.835938 201.210938 290.773438 194 C 294.460938 180.253906 296.382812 187.882812 283.636719 189 C 279.101562 189.398438 274.480469 186.871094 270.175781 186.449219 C 262.351562 185.527344 260.804688 192.726562 264.421875 194.738281 C 264.875 195.050781 265.316406 195.300781 265.617188 195.59375 C 266.605469 196.582031 264.402344 196.378906 263.027344 195.921875 C 260.570312 195.109375 258.109375 192.960938 258.292969 189.457031 C 258.484375 185.816406 260.871094 182.867188 266.289062 182.351562 C 274.136719 181.609375 279.066406 188.628906 291.296875 185.210938 C 293.753906 184.523438 294.078125 183.101562 294.894531 183.621094 C 295.105469 183.753906 295.113281 183.9375 294.972656 184.25 C 292.289062 190.21875 291.753906 195.152344 290.136719 205.011719 C 290.027344 205.675781 289.859375 205.785156 289.167969 205.75 C 282.734375 205.441406 278.640625 207.042969 274.164062 206.222656 C 270.367188 206.238281 270.128906 201.773438 269.855469 198.351562 C 269.585938 194.945312 269.734375 194.324219 270.019531 192.96875 C 270.183594 191.671875 272 192.074219 272.359375 193.445312 C 273.535156 197.910156 273.585938 199.375 273.636719 204.621094 " fill-opacity="1" fill-rule="nonzero"/><path fill="#cb102c" d="M 292.503906 172.640625 C 293.875 171.589844 294.34375 169.710938 294.070312 167.984375 C 293.855469 166.613281 292.976562 165.613281 291.820312 164.941406 C 291.546875 164.824219 291.425781 164.066406 292.183594 163.878906 C 297.425781 163.179688 298.621094 171.152344 292.910156 173.226562 C 292.503906 173.460938 292.15625 172.90625 292.503906 172.640625 " fill-opacity="1" fill-rule="nonzero"/><path fill="#cb102c" d="M 284.3125 202.015625 C 284.449219 202.761719 283.375 203.074219 283.109375 202.328125 C 281.996094 199.210938 282.125 193.679688 283.070312 191.574219 C 283.449219 190.71875 284.761719 190.789062 284.679688 191.746094 C 284.402344 194.996094 283.625 198.292969 284.3125 202.015625 " fill-opacity="1" fill-rule="nonzero"/><path fill="#cb102c" d="M 277.511719 202.191406 C 277.988281 197.460938 276.730469 192.664062 276.679688 192.183594 C 276.582031 191.21875 277.855469 191.539062 278.238281 192.371094 C 279.417969 194.945312 279.226562 199.714844 278.570312 202.335938 C 278.328125 203.289062 277.449219 202.8125 277.511719 202.191406 " fill-opacity="1" fill-rule="nonzero"/><path fill="#cb102c" d="M 263.222656 165.03125 C 262.238281 165.496094 261.699219 166.585938 261.636719 167.6875 C 261.585938 168.554688 261.996094 169.289062 262.617188 169.855469 C 262.769531 169.964844 262.742188 170.445312 262.25 170.460938 C 258.933594 170.191406 259.261719 165.128906 263.050781 164.617188 C 263.332031 164.527344 263.472656 164.914062 263.222656 165.03125 " fill-opacity="1" fill-rule="nonzero"/></svg>